<?xml version="1.0" encoding="UTF-8" standalone="no"?>
<!--XMMS2 - X Music Multiplexer System
 *  Copyright (C) 2003-2017 XMMS2 Team
 *
 *  PLUGINS ARE NOT CONSIDERED TO BE DERIVED WORK !!!
 *
 *  This library is free software; you can redistribute it and/or
 *  modify it under the terms of the GNU Lesser General Public
 *  License as published by the Free Software Foundation; either
 *  version 2.1 of the License, or (at your option) any later version.
 *
 *  This library is distributed in the hope that it will be useful,
 *  but WITHOUT ANY WARRANTY; without even the implied warranty of
 *  MERCHANTABILITY or FITNESS FOR A PARTICULAR PURPOSE.  See the GNU
 *  Lesser General Public License for more details.
-->
<!-- Generator: Adobe Illustrator 12.0.0, SVG Export Plug-In . SVG Version: 6.00 Build 51448)  -->
<svg
   xmlns:svg="http://www.w3.org/2000/svg"
   xmlns="http://www.w3.org/2000/svg"
   xmlns:sodipodi="http://sodipodi.sourceforge.net/DTD/sodipodi-0.dtd"
   xmlns:inkscape="http://www.inkscape.org/namespaces/inkscape"
   version="1.0"
   width="400"
   height="400"
   viewBox="0 0 343.75 416.25"
   overflow="visible"
   enable-background="new 0 0 343.75 416.25"
   xml:space="preserve"
   id="svg3471"
   sodipodi:version="0.32"
   inkscape:version="0.45.1"
   sodipodi:docname="bluenote-1color-black.svg"
   inkscape:output_extension="org.inkscape.output.svg.inkscape"
   sodipodi:docbase="C:\Users\Arnaud\Documents\XMMS-Submissions\bluenote\bluenote"
   inkscape:export-filename="C:\Users\Arnaud\Documents\XMMS-Submissions\bluenote\bluenote-400.png"
   inkscape:export-xdpi="90"
   inkscape:export-ydpi="90"><defs
   id="defs3500" /><sodipodi:namedview
   inkscape:window-height="750"
   inkscape:window-width="1280"
   inkscape:pageshadow="2"
   inkscape:pageopacity="0"
   guidetolerance="10.0"
   gridtolerance="10.0"
   objecttolerance="10.0"
   borderopacity="1.0"
   bordercolor="#666666"
   pagecolor="#ffffff"
   id="base"
   inkscape:zoom="0.93783606"
   inkscape:cx="220.47441"
   inkscape:cy="170.34409"
   inkscape:window-x="-8"
   inkscape:window-y="-8"
   inkscape:current-layer="svg3471"
   width="400px"
   height="400px"
   borderlayer="false"
   showborder="true"
   inkscape:showpageshadow="false" /><path
   style="fill:#000000;fill-opacity:1;fill-rule:evenodd"
   d="M 200 40.46875 C 182.33984 40.46875 165.74208 47.323799 153.25 59.8125 L 59.8125 153.25 C 47.328858 165.74207 40.468749 182.34828 40.46875 200 C 40.46875 217.66691 47.327172 234.28918 59.8125 246.78125 L 118.3125 305.25 C 122.93782 284.79173 139.34394 267.67134 161.71875 262.84375 C 174.06079 260.18217 186.28521 261.71258 196.90625 266.375 L 120.65625 134.1875 C 159.11518 87.02576 203.15291 79.949193 243.375 110.53125 C 266.8438 128.3802 294.03923 137.63919 319.6875 132.78125 L 246.78125 59.8125 C 234.28918 47.3238 217.66691 40.468749 200 40.46875 z M 331.8125 144.875 C 309.60625 155.18758 282.74288 154.4954 246.34375 147.15625 C 208.80687 139.58953 183.46407 152.4443 174.09375 166 L 223.9375 291.875 C 225.29443 294.6057 226.44702 297.46667 227.34375 300.46875 L 227.5 300.875 L 227.4375 300.84375 C 227.77632 302.02031 228.14161 303.19091 228.40625 304.40625 C 232.95572 325.49831 224.25915 346.40524 207.875 359.0625 C 222.54826 357.328 236.13569 350.80182 246.75 340.1875 L 340.1875 246.78125 C 352.67957 234.28917 359.56418 217.67027 359.5625 200 C 359.5625 182.34827 352.67956 165.74207 340.1875 153.25 L 331.8125 144.875 z "
   transform="matrix(1.040625,0,0,1.040625,-36.25,0)"
   id="bg" />

</svg>
